<?xml version="1.0" standalone="no"?>
<!DOCTYPE svg PUBLIC "-//W3C//DTD SVG 1.1//EN" "http://www.w3.org/Graphics/SVG/1.1/DTD/svg11.dtd">
<svg xmlns="http://www.w3.org/2000/svg">
  <defs>
    <font id="ComicRelief" horiz-adv-x="1239">
      <font-face font-family="Comic Relief" units-per-em="2048" panose-1="3 15 7 2 3 3 2 2 2 4" ascent="2160" descent="-697" alphabetic="0" />
      <glyph unicode=" " glyph-name="space" horiz-adv-x="612" />
      <glyph unicode="!" glyph-name="exclam" horiz-adv-x="487" d="M201,181q-30-8-50-27q-23-19-34-46q-9-23-9-48q0-34 17-63q19-33 53-49q25-13 54-13q9,1 17,2q39,5 67,30q27,25 37,62q3,11 3,31q-1,17-4,33q-6,30-33,55q-23,23-54,32q-16,4-33,4q-16,1-31-3Zm41,1425q-2,0-4,0q-86,2-85-86q0-1 0-2l1-1118q0-88 81-86q2,0 4,0q91,0 91,80l1,1122q0,90-89,90Z" />
      <glyph unicode="&quot;" glyph-name="quotedbl" horiz-adv-x="869" d="M217,1588q-2,0-4,0q-80,0-84-111l-14-447q0-3 0-6q0-91 91-92h2q81,0 84,96l13,455q0,3 0,6q0,94-88,99Zm380-4q-2,0-4,0q-80,0-84-111l-14-447q0-3 0-6q0-91 91-92h2q81,0 84,96l13,455q0,3 0,6q0,94-88,99Z" />
      <glyph unicode="#" glyph-name="numbersign" horiz-adv-x="1726" d="M125,1092q-3-99 91-99l273-1L366,573H164Q30,573 28,498q-3-99 91-99H315L254,190Q217,62 288,39Q382,8 409,98l89,300l500-1L937,190Q900,62 971,39q94-31 121,59l88,299q146-1 291-1q135,0 139,95q3,84-115,84H1233l123,415q106,0 212,0q135,0 139,95q3,84-115,84H1409l67,225q38,130-52,160q-80,27-113-86l-88-300q-248,0-497,0l67,226q38,130-52,160q-80,27-113-86l-88-301q-139,0-279,0q-134,0-136-75ZM550,574L674,992l497-1L1050,574H550Z" />
      <glyph unicode="$" glyph-name="dollar" horiz-adv-x="1420" d="M672,1715q-90-1-90-77q0-92 0-184q-63-16-120-43q-176-83-240-194q-88-153-50-308q66-269 412-274l2-515q-82,2-164,31q-77,29-138,94q-81,87-146,60q-50-21-60-88Q66,140 150,67q56-49 136-82Q405-65 585-64q1,0 1,0q1-91 1-182q1-114 85-115q88,0 88,114L759-49Q892-27 993,32q247,143 261,391q9,161-117,291q-82,85-315,109q-31,2-63,4q0,232 0,463q100,0 225-49q82-32 134-12q59,25 59,66q0,70-64,99q-184,83-341,83q-6,0-13,0l-1,161q0,78-86,77ZM759,631q245-21 277-136q38-139-96-268q-53-51-181-83V631ZM584,837l-64,4q-162,25-144,204q10,91 104,164q43,33 103,53l1-425Z" />
      <glyph unicode="%" glyph-name="percent" horiz-adv-x="1680" d="M1206,1609q-75,38-106-27L373,40q-38-81 3-99t81.5-36.5T536-32l709,1541q30,65-39,100Zm-853,12q-72-26-125-85q-51-56-67-135q-6-29-6-59q1-48 15-92q23-74 81-127q60-55 140-72q30-6 61-6q50,0 96,16q77,26 130,88q53,61 67,142q5,25 5,50q0,53-18,102q-26,73-87,125q-59,50-140,65q-25,5-52,5q-52,0-100-17Zm102-429h-1q-50,0-91,30t-55,79q-6,21-6,43q-1,27 9,53q18,48 61,75q37,24 82,24q17,0 32-4q29-6 54-23q26-18 41-42q23-33 25-77q0-3 0-6q0-38-18-72q-20-36-56-58q-35-22-77-22Zm708-575q-81-29-140-96q-57-62-75-151q-7-32-7-66q0-53 16-103q27-84 92-143q67-61 157-80q33-7 68-7q56,0 108,18q87,30 146,99q59,68 75,159q4,28 4,56q0,59-20,114q-29,82-97,141q-65,56-156,72q-29,6-59,6q-58,0-112-19Zm114-481h-1q-56-1-102,33t-62,89q-7,23-7,48q0,30 11,59q20,53 68,84q41,27 92,27q19,0 36-4q33-7 60-26q30-20 47-47q25-37 27-86q0-3 0-7q0-43-20-81q-22-41-62-65t-87-24Z" />
      <glyph unicode="&amp;" glyph-name="ampersand" horiz-adv-x="1340" d="M1254,41L1030,403l156,193q77,96-6,156q-82,59-150-28L920,582L731,886l132,150q158,180 114,346q-48,178-258,190q-255,15-357-154q-93-154 66-404l63-99L208,596Q28,393 122,184Q220-33 484-38q188-3 328,170l99,123L1098-40q52-82 127-36q66,41 29,117ZM622,1063l-50,81q-60,96-34,168q25,70 136,76q76,4 112-52q33-52-56-152L622,1063ZM603,739L800,428L716,320Q589,157 484,164Q339,174 314,312q-16,81 152,272L603,739Z" />
      <glyph unicode="&apos;" glyph-name="quotesingle" horiz-adv-x="795" d="M378,1659q-92-4-90-108l6-308q2-103 91-102q85,0 85,103v309q0,109-92,106Z" />
      <glyph unicode="(" glyph-name="parenleft" horiz-adv-x="750" d="M578-214Q379-80 326,362q-32,268 22,528q64,306 212,442q182,166 106,246q-70,74-230-94q-116-124-198-318Q122,899 112,630Q101,318 196,22q67-207 226-352q160-146 234-90q106,82-78,206Z" />
      <glyph unicode=")" glyph-name="parenright" horiz-adv-x="750" d="M232-214Q48-338 154-420q74-56 234,90Q547-185 614,22q95,296 84,608q-10,269-126,536q-82,194-198,318q-160,168-230,94q-76-80 106-246q148-136 212-442q54-260 22-528Q431-80 232-214Z" />
      <glyph unicode="*" glyph-name="asterisk" horiz-adv-x="1085" d="M499,1593q-92,2-91-89q1-117 1-235l-218,80q-85,31-117-51q-33-85 52-116l207-75L182,953q-68-70-6-130q63-64 136,10l183,186L683,826q64-65 128-5q67,63 3,128L657,1107l205,76q91,33 61,114q-29,85-127,50l-210-76l1,229q0,91-88,93Z" />
      <glyph unicode="+" glyph-name="plus" horiz-adv-x="984" d="M470,1045q-90,1-90-100q0-104-1-208l-235-1q-91,0-91-91q-2-90 88-89q119,1 237,2q-1-118-2-235q-2-91 90-92q90-2 90,88V560q104,1 209,2q101,1 101,87q0,89-100,89l-210-1V943q0,101-86,102Z" />
      <glyph unicode="," glyph-name="comma" horiz-adv-x="567" d="M458,128q-84,44-122-52L220-216q-34-88 34-119q64-28 108,69L492,15q36,77-34,113Z" />
      <glyph unicode="-" glyph-name="hyphen" horiz-adv-x="853" d="M184,620q-72,0-72-77q0-74 66-74l491-1q89,0 89,78q0,76-94,76l-480-2Z" />
      <glyph unicode="." glyph-name="period" horiz-adv-x="510" d="M264,156q-34,0-62-18q-26-18-43-47q-16-28-16-60q0-34 17-63q17-28 44-44q26-16 57-17q3,0 6,0q31-1 56,12q24,11 44,37q22,29 25,65q0,5 0,10q0,31-14,58q-16,32-47,50q-29,17-63,17q-2,0-4,0Z" />
      <glyph unicode="/" glyph-name="slash" horiz-adv-x="1048" d="M928,1609q-75,38-106-27L95,40Q57-43 139-79q81-36 119,47L967,1509q30,65-39,100Z" />
      <glyph unicode="0" glyph-name="zero" horiz-adv-x="1250" d="M646,1328q330,0 330-565q0-627-360-627q-357,0-357,612q0,580 387,580Zm-3,189Q61,1517 61,745Q61-50 616-50q564,0 564,810q0,757-537,757Z" />
      <glyph unicode="1" glyph-name="one" horiz-adv-x="922" d="M602,1406q1,90-54,102q-68,16-149-60L200,1261q-71-67-19-137q65-88 160,3l74,70L413,136q-75,0-149,0q-99,0-100-100q0-84 90-84H708q100,0 100,90q0,93-103,93q-54,0-109,0q6,1271 6,1271Z" />
      <glyph unicode="2" glyph-name="two" horiz-adv-x="1250" d="M164,90Q159-49 262-49H995q104-1 105,95q1,92-106,92q-317,1-634,2q7,97 121,263Q601,578 829,682q250,114 257,426q5,232-190,354q-91,56-244,56q-163,0-269-63q-82-48-197-189q-56-68 14-124q76-64 158,30q112,130 184,154q121,39 234-18q116-59 113-183q-5-219-177-302Q448,695 313,502Q170,292 164,90Z" />
      <glyph unicode="3" glyph-name="three" horiz-adv-x="1250" d="M400,810q-1-78 163-92q305-52 320-308q14-223-237-260q-204-30-276,58Q269,331 226,327q-81-9-78-102q3-98 123-186Q444-87 714-32q321,66 361,367q40,306-141,421q-84,54-116,60q120,46 171,121q140,206-15,435q-91,135-375,153q-136,9-306-92q-98-58-92-144q5-70 74-78q50-6 165,76q79,56 182,48q229-18 244-180q14-150-160-193q-201-49-244-68q-60-26-62-84Z" />
      <glyph unicode="4" glyph-name="four" horiz-adv-x="1250" d="M681,1423L83,602q-35-48-35-98q0-91 94-91l633,1q0-178 1-356q0-107 96-108q92-1 92,106V414h85q141,0 139,98q-3,100-144,100q-40,0-80,0v797q0,105-102,106q-113,1-181-92Zm93-812l-425-1l427,627q-2-342-2-626Z" />
      <glyph unicode="5" glyph-name="five" horiz-adv-x="1250" d="M287,1500q-70,0-84-58L142,754q-11-126 72-129q78-2 207,123q97,104 252,105q312,2 288-300Q928,126 539,127q-137,0-239,134q-61,79-151,1q-50-43 2-128Q263-49 501-60q644-30 655,616q8,491-483,492q-166,0-324-123l40,387H999q103,0 102,100q-1,93-108,92l-706-4Z" />
      <glyph unicode="6" glyph-name="six" horiz-adv-x="1250" d="M310,1175Q112,886 130,418Q148-57 574-53q534,4 534,511q0,494-468,493q-200,0-269-67q83,182 176,278q83,85 201,159q117,73 96,135q-41,107-160,46q-231-118-374-327ZM616,749q300,0 300-300q0-326-346-326q-256,0-256,314q0,312 302,312Z" />
      <glyph unicode="7" glyph-name="seven" horiz-adv-x="1250" d="M201,1509q-129,0-129-48t0-96t126-48H942L299,116Q240,6 332-49q92-56 160,73l704,1326q2,4 4,7q17,25 15,65q-6,90-138,90l-876-3Z" />
      <glyph unicode="8" glyph-name="eight" horiz-adv-x="1250" d="M621,1514q-450,0-450-402q0-246 201-320Q123,696 123,346Q123-44 606-44q519,0 519,436q0,327-296,409q224,81 224,317q0,396-432,396Zm232-393q4-173-253-227q-226,30-231,194q-9,245 258,243q223-2 226-210ZM318,364Q300,590 606,717q312-96 310-325q-1-257-262-269Q339,108 318,364Z" />
      <glyph unicode="9" glyph-name="nine" horiz-adv-x="1250" d="M892,583Q798,388 685,297Q548,187 334,135Q233,111 266,14q31-90 152-57Q914,94 1060,491q64,175 65,421q2,592-465,603q-534,12-534-531q0-465 463-465q213,0 303,64ZM622,712Q310,699 309,985q-1,360 346,346q255-10 282-336q23-269-315-283Z" />
      <glyph unicode=":" glyph-name="colon" horiz-adv-x="612" d="M292,156q-34,0-62-18q-26-18-43-47q-16-28-16-60q0-34 17-63q17-28 44-44q26-16 57-17q3,0 6,0q31-1 56,12q24,11 44,37q22,29 25,65q0,5 0,10q0,31-14,58q-16,32-47,50q-29,17-63,17q-2,0-4,0Zm4,959q-34,0-62-18q-26-18-43-47q-16-28-16-60q0-34 17-63q17-28 44-44q26-16 57-17q3,0 6,0q31-1 56,12q24,11 44,37q22,29 25,65q0,5 0,10q0,31-14,58q-16,32-47,50q-29,17-63,17q-2,0-4,0Z" />
      <glyph unicode=";" glyph-name="semicolon" horiz-adv-x="612" d="M284,1116q-34,0-62-18q-26-18-43-47q-16-28-16-60q0-34 17-63q17-28 44-44q26-16 57-17q3,0 6,0q31-1 56,12q24,11 44,37q22,29 25,65q0,5 0,10q0,31-14,58q-16,32-47,50q-29,17-63,17q-2,0-4,0Zm62-988q-84,44-122-52L108-216q-34-88 34-119q64-28 108,69L380,15q36,77-34,113Z" />
      <glyph unicode="&lt;" glyph-name="less" horiz-adv-x="781" d="M69,695q-48-42-49-90q0-35 56-80L459,216q68-55 122,6q62,70-5,126L251,618L564,884q87,74 35,140q-62,78-148,3L69,695Z" />
      <glyph unicode="=" glyph-name="equal" horiz-adv-x="1045" d="M186,998q-88,0-88-92q0-87 79-87l596-1q109,0 109,92q0,90-114,90l-582-2Zm-9-542q-87,0-87-92q0-87 79-87l596-1q108,0 108,92q-1,90-114,90l-582-2Z" />
      <glyph unicode="&gt;" glyph-name="greater" horiz-adv-x="781" d="M667,723L285,1055q-86,75-148-3q-52-66 35-140L485,646L160,376q-68-55-5-126q54-61 122-6L660,553q56,45 56,80q-1,48-49,90Z" />
      <glyph unicode="?" glyph-name="question" horiz-adv-x="1073" d="M346,176q-30-8-50-27q-23-19-34-46q-9-23-9-48q0-34 17-63q19-33 53-49q25-13 54-13q9,1 17,2q39,5 67,30q27,25 37,62q3,11 3,31q-1,17-4,33q-6,30-33,55q-23,23-54,32q-16,4-33,4q-16,1-31-3ZM126,1339q-102-117-10-189q54-42 178,69q80,71 218,54q150-18 177-153q41-206-163-269Q321,787 296,580Q268,351 404,358q90,5 94,204q0,84 188,135q266,73 210,459q-46,328-392,321q-260-5-378-138Z" />
      <glyph unicode="@" glyph-name="at" horiz-adv-x="1907" d="M1278,626q-47,251-26,520q7,73-87,73q-50,0-71-34q-57,20-132,10q-460-59-448-531q10-377 474-318q120,15 194,80q17-21 36-36q75-58 164-42q166,30 228,114q71,96 113,214q36,101 36,212q1,110-35,214q-64,188-228,324q-102,86-216,135q-114,50-276,63q-36,3-73,3q-182,0-267-33q-182-71-312-204q-100-100-160-243q-60-139-74-291q-4-47-4-95q0-208 40-316Q246,197 436,46Q542-37 661-83q149-57 255-57q134,0 150,3q216,36 333,98q109,58 63,149q-42,85-162,35q-126-52-176-66Q1020,50 937,50q-79,0-155,20Q606,118 482,256Q363,389 328,574q-14,69-13,143q1,88 19,178q34,170 120,297q48,69 106,117q120,99 302,114q32,3 65,3q189,0 343-84q86-46 149-116q68-76 98-156q32-82 32-179q0-130-36-186q-60-94-153-107q-60-9-82,28ZM931,999q65,8 128-5q-14-153 29-400q-85-91-235-83q-165,9-165,177q0,286 243,311Z" />
      <glyph unicode="A" glyph-name="A" horiz-adv-x="1498" d="M888,1363q-60,166-145,166q-86,0-146-166L152,122Q104-15 202-44Q298-71 346,66L503,501H983L1140,66q49-138 144-110q99,29 50,166L888,1363ZM743,1167L909,706l-333-2l167,463Z" />
      <glyph unicode="B" glyph-name="B" horiz-adv-x="1291" d="M421,1331q70-1 140-3q234-7 307-152q61-122-36-267q-85-126-423-89l12,511Zm-99,197q-91,0-93-93L196,43Q193-64 283-66q10,0 18,1Q563-90 836-23q265,65 329,233q105,284-157,480q-28,21-95,41q30,20 51,44q185,212 106,439q-93,265-464,301q-191,18-243,8q-18,5-41,5Zm83-905q90,8 238-5q158-15 249-75q118-79 96-204Q969,237 829,186q-125-45-237-59q-95-11-198-3l11,499Z" />
      <glyph unicode="C" glyph-name="C" horiz-adv-x="1234" d="M545,1244q114,75 247,45q89-21 158-68q75-52 146,14q39,38 35,111q-4,57-131,122q-167,85-375,52q-218-35-414-311Q77,1018 77,649Q76,340 222,148Q366-42 608-50Q792-57 951,9q193,79 201,155q15,135-82,153q-56,12-198-79q-98-64-279-55q-127,6-203,121q-95,146-95,369q0,242 82,383q73,125 168,188Z" />
      <glyph unicode="D" glyph-name="D" horiz-adv-x="1478" d="M310,1525q-90,0-92-89L184,51Q181-52 272-54q20,0 35,3q93-5 303-2q358,5 482,105q269,216 284,487q23,371-367,704q-273,233-631,274q-12,2-24,3q-20,5-44,5Zm99-235q265-14 474-209q308-283 291-532q-9-143-145-294Q928,143 598,135l-215,3l26,1152Z" />
      <glyph unicode="E" glyph-name="E" horiz-adv-x="1279" d="M352,1501q-12,0-23-2q-16,3-37,3q-92-1-94-86L165,63Q162-37 252-39q8,0 16,0q10-2 22-2l700,4q141,1 138,93q-3,115-144,114l-620-3l14,562l563,3q141,2 138,93q-3,115-144,114l-553-3l9,358q330,2 661,4q141,0 138,92q-3,116-144,115l-694-4Z" />
      <glyph unicode="F" glyph-name="F" horiz-adv-x="1243" d="M298,1501q-90-2-92-87L172,61Q170-39 260-41Q368-43 369,59l16,669l563,3q141,1 138,92q-3,116-144,115l-553-3l9,357q330,2 661,4q141,1 138,93q-3,115-144,114l-695-4q-12,0-22-2q-17,4-38,4Z" />
      <glyph unicode="G" glyph-name="G" horiz-adv-x="1392" d="M949,276Q819,152 605,164q-128,7-231,141q-90,117-90,369q0,231 82,383q70,132 190,193q112,58 210,54q161-7 252-104q112-121 180-73q62,44 36,135q-26,90-192,190q-165,98-417,56q-246-44-396-266Q77,1018 77,650Q76,342 223,150Q369-42 608-49q312-9 496,160q194,176 224,557q8,100-87,99l-511-8q-148-2-145-101q3-108 128-107l368,4q-27-180-132-279Z" />
      <glyph unicode="H" glyph-name="H" horiz-adv-x="1573" d="M286,1513q-92-2-94-88L159,57Q156-44 246-46Q354-47 356,56l13,575h865q-7-287-14-574q-2-101 88-103q108-2 109,101l31,1364q2,93-102,93q-90-2-92-88l-15-584H374l14,580q2,93-102,93Z" />
      <glyph unicode="I" glyph-name="I" horiz-adv-x="1119" d="M216,1494q-135,0-135-95q0-112 126-112H444L415,165H202Q67,166 67,71Q67-42 193-42H925q131,0 129,99q-2,108-123,108H611l28,1122H939q131,0 129,99q-2,108-123,108H216Z" />
      <glyph unicode="J" glyph-name="J" horiz-adv-x="1362" d="M463,1498q-135,0-135-90q0-107 126-107H748V297q0-157-171-157q-276,0-276,255q0,93-97,94q-98-1-104-89Q69-34 580-58Q952-76 952,303v998h234q131-1 129,94q-2,103-123,103H463Z" />
      <glyph unicode="K" glyph-name="K" horiz-adv-x="1251" d="M340,1521q-92-2-94-89L213,47Q210-55 300-57Q408-59 410,45l12,513L1046,41q96-79 164-11q65,65-28,143L555,699l601,620q72,74-2,147q-75,73-154-12L428,843l14,584q2,94-102,94Z" />
      <glyph unicode="L" glyph-name="L" horiz-adv-x="1128" d="M192-44q21,0 21,0L989-31q96,1 96,105q0,105-99,103L304,162l30,1278q2,95-102,95q-92-2-94-89L105,61Q102-45 192-44Z" />
      <glyph unicode="M" glyph-name="M" horiz-adv-x="1808" d="M872-19q90-7 152,175l293,857l176-906q34-174 149-160q108,13 78,156L1462,1353q-35,168-127,170q-101,3-152-163L884,383Q640,1410 640,1410q-26,108-120,94q-92-14-124-149L120,177Q84,21 178-32Q284-92 318,65l210,935L742,144Q780-13 872-19Z" />
      <glyph unicode="N" glyph-name="N" horiz-adv-x="1632" d="M1326,331L335,1473q-26,30-79,29q-90-2-92-87L130,60Q127-40 218-42Q325-44 327,58l23,1087L1335,23q28-32 73-34q108-4 110,100l31,1351q2,93-102,93q-91-2-93-87L1326,331Z" />
      <glyph unicode="O" glyph-name="O" horiz-adv-x="1635" d="M955,1313q399-27 393-435q-4-323-225-588Q1001,143 787,143q-221,0-351,135Q325,393 325,575q0,361 243,595q164,158 387,143Zm-12,199q-358,4-567-238Q115,970 115,573q0-254 144-413Q461-63 787-63q313,0 519,248q242,290 243,694q1,626-606,633Z" />
      <glyph unicode="P" glyph-name="P" horiz-adv-x="1066" d="M221,1518q-91,0-93-88L94,60Q92-42 182-44Q290-46 292,58l12,535q25-3 55-1q420,23 527,156q182,229 84,484q-97,251-446,286q-105,10-262-4q-18,4-41,4Zm99-201q81,9 140,10q226,2 308-150q68-131-18-280Q662,745 308,782l12,535Z" />
      <glyph unicode="Q" glyph-name="Q" horiz-adv-x="1795" d="M980,1505q-358,4-567-233Q152,975 152,587q0-246 144-401Q501-35 824-35q177,0 320,78l186-172q101-93 174-14q61,66-39,161L1307,168q19,18 36,39q242,299 243,679q1,612-606,619Zm12-195q399-26 393-425q-4-316-225-575q-1-1-1-1L1010,452Q905,553 838,504q-108-80 0-179L984,191q-72-25-160-25q-221,0-351,132Q362,411 362,589q0,350 243,581q163,155 387,140Z" />
      <glyph unicode="R" glyph-name="R" horiz-adv-x="1287" d="M1105,20q131,70 15,178L671,616q180,44 245,116q196,218 90,486q-104,264-465,291q-126,10-243-1q-18,4-41,4q-91,0-93-88L130,49Q128-53 218-55Q326-57 328,47l12,534q25-3 55-1q17,1 33,2L922,92q111-111 183-72ZM356,1317q70-1 140-3q235-2 314-135q84-141-17-288Q685,734 344,770l12,547Z" />
      <glyph unicode="S" glyph-name="S" horiz-adv-x="1420" d="M292,1238q-89-150-50-308q69-280 440-274q384,6 424-140q38-139-96-268q-68-66-260-100q-108-19-238,11q-96,23-162,82q-85,75-142,59q-51-15-60-81q-8-60 72-131Q276,39 356,6Q475-44 655-43q244,1 408,96q247,143 261,391q9,161-117,291Q1107,838 892,845q-241,8-302,17q-161,23-144,204q9,90 104,164q90,70 256,80q108,6 248-48q97-38 134-20q57,28 54,79q-3,62-149,126q-104,45-251,51q-167,6-311-64q-172-83-239-196Z" />
      <glyph unicode="T" glyph-name="T" horiz-adv-x="1392" d="M252,1500q-135,0-135-88q0-105 126-105q236,0 472,1L684,52Q682-48 772-50Q879-52 881,50l30,1259l421,1q134,0 132,92q-2,98-132,98H252Z" />
      <glyph unicode="U" glyph-name="U" horiz-adv-x="1509" d="M-587,1999Zm1872-514q-99,2-102-153l-12-567q-13-620-399-626q-415-7-411,638l3,547q1,173-99,174q-101,0-102-199l-3-537Q155-39 767-40q587-1 608,784l15,567q5,172-105,174Z" />
      <glyph unicode="V" glyph-name="V" horiz-adv-x="1331" d="M625-41q28-9 56,0q78,25 125,184l330,1117q74,252-76,252q-72,0-92-70L653,324L339,1442q-21,70-93,70q-149,0-75-252L501,143Q547-12 625-41Z" />
      <glyph unicode="W" glyph-name="W" horiz-adv-x="2129" d="M1436-55q28-8 56,0q76,22 124,186l330,1131q74,256-74,256q-72-1-94-72L1464,314L1150,1446q-20,73-96,73q-72-1-92-72L647,315L333,1447q-21,72-93,72q-149-1-75-256L495,132Q542-31 619-54q28-8 56,0q77,22 125,186l256,878l256-879q45-155 124-186Z" />
      <glyph unicode="X" glyph-name="X" horiz-adv-x="1482" d="M191,1498q-105-61-33-154L613,755L122,113Q63,36 134-18q90-69 150,8L744,586L1205-10q60-76 150-8q71,54 12,131L876,755l455,589q72,93-33,154q-81,47-186-90L744,927L377,1408q-105,137-186,90Z" />
      <glyph unicode="Y" glyph-name="Y" horiz-adv-x="1301" d="M1171,1496q-88,48-138-55L680,711L226,1446q-64,104-150,45q-79-54-30-133L577,500L418,170Q340,9 421-30Q532-87 595,47l624,1323q38,80-48,126Z" />
      <glyph unicode="Z" glyph-name="Z" horiz-adv-x="1420" d="M1313,1242q69,81 69,147q1,113-123,113l-1051,4q-116,0-116-111q0-104 122-105l853-5L133,165Q92,116 92,59Q92-45 214-46l1044-6q124-1 124,105q1,113-123,113l-857,3l911,1073Z" />
      <glyph unicode="[" glyph-name="bracketleft" horiz-adv-x="771" d="M578,1518l-292-2q-98-1-99-123L175-287q-1-126 99-127q310-1 318-1q109,0 109,93q0,101-91,100q-127-2-254-3l21,1548l178,1q109,0 109,95q0,100-86,99Z" />
      <glyph unicode="\" glyph-name="backslash" horiz-adv-x="1126" d="M176,1609q-69-35-39-100L846-32q37-83 120-46q82,36 43,118L282,1582q-31,65-106,27Z" />
      <glyph unicode="]" glyph-name="bracketright" horiz-adv-x="771" d="M301,1518q-86,1-86-99q0-95 109-95l178-1L523-225q-127,2-254,3q-91,1-91-100q0-96 109-95q2-2 318,3q100,2 99,127L692,1393q-1,123-99,123l-292,2Z" />
      <glyph unicode="^" glyph-name="asciicircum" horiz-adv-x="1190" d="M612,1647q-43,1-87-48L248,1293q-70-77-22-129q78-80 148-3l238,262l240-262q70-77 146,3q50,52-20,129L700,1599q-45,49-88,48Z" />
      <glyph unicode="_" glyph-name="underscore" horiz-adv-x="1284" d="M1323-160H-35V-345H1323v185Z" />
      <glyph unicode="`" glyph-name="grave" horiz-adv-x="1139" d="M187,1636q-75-59-14-126l237-260q88-96 144-40q53,53-28,155L318,1625q-57,71-131,11Z" />
      <glyph unicode="a" glyph-name="a" horiz-adv-x="1048" d="M504-56q93,1 300,106Q824-82 949-56q109,22 24,168q-58,100-54,340q5,301 28,426q23,128-97,155q-61,14-90-11q-262,83-502-114Q49,737 52,424Q55-57 504-56ZM620,145q-76-28-163-22Q250,137 247,443q9,235 187,364q44,33 118,51q106,26 203-35q-46-162-10-592q-89-73-125-86Z" />
      <glyph unicode="b" glyph-name="b" horiz-adv-x="1215" d="M264,1610q-90,0-92-93L138,66Q136-41 226-43q100-2 108,93Q486-51 660-50Q830-49 966,82q145,143 156,345q15,269-138,447q-147,171-363,171q-120,0-210-51q-30-17-56-34l11,551q2,99-102,99ZM660,145Q532,128 340,271l9,458Q515,890 679,851q106-26 179-106q90-98 86-270q-3-117-83-225q-66-87-201-105Z" />
      <glyph unicode="c" glyph-name="c" horiz-adv-x="1052" d="M811,211q-118-80-254-75q-132,5-206,104q-81,111-78,245q3,142 79,252q67,96 150,122q148,47 265-40q97-72 144-38q68,49 7,145q-40,62-161,103q-98,32-217,23q-204-15-336-206Q95,689 95,443Q95,220 248,72Q371-47 557-48q236-1 346,93q85,75 52,131q-56,94-144,35Z" />
      <glyph unicode="d" glyph-name="d" horiz-adv-x="1203" d="M1002,1610q-90-2-92-93L896,940q-39,27-86,54q-90,51-210,51q-224,0-363-171Q90,693 99,427q8-197 156-345Q388-49 561-50q168-1 316,93q7-84 87-86q108-2 109,107l31,1447q2,99-102,99ZM880,269Q701,129 561,145Q428,160 360,250q-85,111-83,225q4,177 83,276q56,69 182,100q172,42 349-141q0-233-11-441Z" />
      <glyph unicode="e" glyph-name="e" horiz-adv-x="1122" d="M259,433l672,97q107,15 111,138q5,153-118,273q-130,128-361,114q-222-14-362-215Q89,679 89,473Q89,223 267,77Q410-41 601-43q260-2 420,140q91,81 44,174q-20,40-68,30q-43-9-110-84q-70-78-274-80q-140-1-252,98q-97,85-102,198Zm22,165q28,99 72,154Q453,875 591,875q99,1 187-55q76-49 91-136L281,598Z" />
      <glyph unicode="f" glyph-name="f" horiz-adv-x="1041" d="M205,1045q-118,0-118.5-49.5t-1-99T193,847H356L343,56Q341-51 431-53Q540-55 541,54l10,793H797q133,0 126,108q-6,90-139,90H555q-1,126 26,220q46,162 232,144q120-11 137,85q20,112-193,105q-216-7-293-118q-98-140-103-436H205Z" />
      <glyph unicode="g" glyph-name="g" horiz-adv-x="1087" d="M794,600q-35-210-54-244Q657,172 439,190Q240,207 268,473q24,234 145,309q108,67 237,67q151-1 156-128q4-28-12-121ZM928,933q-13,2-23,2q-61,146-334,118Q172,1012 89,620Q-35,34 407-8Q669-33 754,102L738-63Q712-331 491-369q-131-22-318,23Q79-323 60-410q-17-78 54-112q63-30 244-43Q885-603 932-65l76,862q11,120-80,136Z" />
      <glyph unicode="h" glyph-name="h" horiz-adv-x="1183" d="M274,1611q-92-2-94-94L147,66Q145-41 234-43Q340-45 344,64l22,577Q522,828 707,812q162-13 160-279L864,54Q863-66 970-57q95,8 96,129l4,507q4,455-371,456q-208,0-333-116l10,592q2,100-102,100Z" />
      <glyph unicode="i" glyph-name="i" horiz-adv-x="574" d="M305,1047q-101,2-104-131L184,77Q181-49 288-50q94,0 96,135l14,832q2,128-93,130Zm7,454q-34,0-62-18q-26-18-43-47q-16-28-16-60q0-34 17-63q17-28 44-44q26-16 57-17q3,0 6,0q31-1 56,12q24,11 44,37q22,29 25,65q0,5 0,10q0,31-14,58q-16,32-47,50q-29,17-63,17q-2,0-4,0Z" />
      <glyph unicode="j" glyph-name="j" horiz-adv-x="826" d="M501,1049q-96,0-98-110L381-231q-3-156-96-156q-125,0-154,138Q105-122 15-122q-21,0-46-7q-58-16-58-85q0-60 43-158Q50-593 282-603q10,0 20,0q283,0 283,365q0,3 0,7L602,939q2,110-101,110Zm25,459q-34,0-62-18q-26-18-43-47q-16-28-16-60q0-34 17-63q17-28 44-44q26-16 57-17q3,0 6,0q31-1 56,12q24,11 44,37q22,29 25,65q0,5 0,10q0,31-14,58q-16,32-47,50q-29,17-63,17q-2,0-4,0Z" />
      <glyph unicode="k" glyph-name="k" horiz-adv-x="1106" d="M292,1610q-92-2-94-93L165,66Q162-41 252-43Q360-45 362,64l6,296L538,513L878,23Q958-93 1052,0q60,59-22,172L686,647L988,920q84,74 16,152q-64,72-172-26L374,626l20,885q2,99-102,99Z" />
      <glyph unicode="l" glyph-name="l" horiz-adv-x="561" d="M300,1610q-90-2-92-93L174,66Q172-41 262-43Q370-45 371,64l31,1447q2,99-102,99Z" />
      <glyph unicode="m" glyph-name="m" horiz-adv-x="1591" d="M232,1094q-92,0-94-93L115,74Q112-33 202-35Q306-37 309,72l17,553q54,208 227,202q154-5 148-290L691,78Q688-42 791-33q93,8 96,129l12,501q1,58 4,61q66,172 249,167q158-4 154-300l-6-461q-2-121 106-111q94,8 96,129l8,497q7,455-372,456q-205,1-307-147q-73,149-281,147q-128-1-217-81l1,41q2,99-102,99Z" />
      <glyph unicode="n" glyph-name="n" horiz-adv-x="1072" d="M250,1094q-92,0-94-93L133,71Q130-36 220-38Q327-40 330,69l16,605Q505,833 644,823q165-12 158-288L790,61Q787-60 896-50q94,8 96,129l8,500q7,455-371,456q-170,0-279-99q1,30 2,59q3,99-102,99Z" />
      <glyph unicode="o" glyph-name="o" horiz-adv-x="1077" d="M574,845q211,4 210-352q-1-188-80-273q-75-80-184-80q-96,0-170,80q-72,78-72,235q0,163 100,299q65,88 196,91Zm-8,204q-218,2-350-172Q82,701 82,473Q82,232 194,99Q318-48 496-49q246-2 366,151Q969,229 970,473q1,573-404,576Z" />
      <glyph unicode="p" glyph-name="p" horiz-adv-x="1095" d="M226-571q91,0 93,94L331,56q2-1 3-2Q401-13 572,0Q766,14 898,178q118,147 117,416q0,186-130,325q-131,142-309,143q-184,2-234-37q-25,57-77,58q-107,2-109-107L124-471q-2-100 102-100ZM349,808q83,80 219,62q128-17 194-99q77-96 75-225q-2-138-67-233Q694,200 546,190q-112-8-209,100l12,518Z" />
      <glyph unicode="q" glyph-name="q" horiz-adv-x="1065" d="M809-570q91,0 93,93L936,974q2,107-88,109q-89,2-106-73q-58,36-178,36q-216,0-361-172Q66,714 66,446Q66,236 212,91Q344-42 531-43q143-1 186,23L707-471q-2-99 102-99ZM722,216q-65-64-173-57q-143,9-225,107q-76,92-74,234q4,128 88,243q76,103 200,111q136,10 196-60L722,216Z" />
      <glyph unicode="r" glyph-name="r" horiz-adv-x="984" d="M250,1094q-92,0-94-93L133,66Q130-41 220-43Q325-45 328,64l17,656q94,93 207,115q116,23 206-38q115-78 159,50q27,81-125,157q-86,43-219,41q-109-2-221-87q0,19 0,37q0,99-102,99Z" />
      <glyph unicode="s" glyph-name="s" horiz-adv-x="997" d="M392,144q-92,6-180,66q-72,49-128,12q-46-30-42-96q4-60 74-100q78-45 132-60q88-25 228-24q166,1 266,68Q866,93 882,222q15,126-86,248q-43,52-153,103q-81,38-176,48q-121,13-139,67q-20,62 29,119q58,68 179,74q113,4 171-52q116-112 173-65q46,37 37,97q-14,91-157,161q-110,54-256,41q-130-12-229-84q-84-60-127-175q-40-104-16-204q31-128 236-158q198-27 254-87q84-90 44-153q-50-73-274-58Z" />
      <glyph unicode="t" glyph-name="t" horiz-adv-x="965" d="M492,1610q-90,0-92-93l-11-473q-116-1-231-1q-95,0-95-101q0-98 86-98q117,0 235,0L366,66Q364-41 454-43Q562-45 563,64l17,780q107,0 214,0q117,0 117,102q0,101-123,100l-203-1q7,211 9,466q0,99-102,99Z" />
      <glyph unicode="u" glyph-name="u" horiz-adv-x="1065" d="M860-76q90,0 92,93l24,934q2,108-88,110q-106,1-109-108L767,448q-5-164-135-230q-144-72-248-2q-76,53-74,295l2,437q2,120-104,111q-94-9-96-129l-4-491Q104-16 480-17q170,0 279,99l-1-59q-2-99 102-99Z" />
      <glyph unicode="v" glyph-name="v" horiz-adv-x="996" d="M119,1046q-85-36-37-162L397,64Q440-45 518-45q76,0 118,109L951,884q48,126-37,162q-99,42-145-85L516,260L264,961q-46,127-145,85Z" />
      <glyph unicode="w" glyph-name="w" horiz-adv-x="1401" d="M817,915q-22,131-102,131q-68,0-110-131L383,221L266,915q-24,144-112,130q-92-14-68-140L244,72Q267-50 370-50q83,0 126,122L689,621L795,72Q818-50 921-50q84,0 126,122l289,833q43,124-61,140q-74,11-119-130L934,221L817,915Z" />
      <glyph unicode="x" glyph-name="x" horiz-adv-x="1209" d="M120,1027q-81-64 2-155L471,490L149,147Q50,42 129-27q71-62 166,44L592,349L889,17q95-106 166-44q78,68-20,174L718,492l344,380q83,91 2,155q-76,61-166-43L592,632L286,984q-90,103-166,43Z" />
      <glyph unicode="y" glyph-name="y" horiz-adv-x="1066" d="M960,1029q-96,40-147-78L539,320L204,957q-63,119-156,69q-88-47-24-165L440,91L241-369q-69-159 36-202q88-36 157,124L1005,870q51,118-45,159Z" />
      <glyph unicode="z" glyph-name="z" horiz-adv-x="1102" d="M1001,858q55,69 41,112q-24,77-101,77H275q-115,0-118-89q-4-110 111-110H743L182,142Q122,67 128,31q13-77 101-77H895q115,0 118,89q3,96-111,96H433l568,719Z" />
      <glyph unicode="{" glyph-name="braceleft" horiz-adv-x="750" d="M211,798q0-48-111-112Q0,629 4,568q-4-60 96-119q111-64 111-112L208,13q-4-396 342-396q128,0 128,100q0,88-142,86Q392-199 394,19l3,321q1,105-135,228Q398,690 397,795l-3,423q-2,226 141,216q159-12 159,103q1,83-144,83q-345,0-342-396l3-426Z" />
      <glyph unicode="|" glyph-name="bar" horiz-adv-x="863" d="M444,1715q-90-1-90-77l5-1884q1-114 85-115q88,0 88,114l-2,1885q0,78-86,77Z" />
      <glyph unicode="}" glyph-name="braceright" horiz-adv-x="750" d="M490,798l3,426q3,396-342,396Q6,1620 7,1537q1-115 159-103q143,10 141-216l-3-423q-1-104 135-227Q303,444 304,340l3-321q2-218-141-216Q21-195 23-283q2-100 128-100q346,0 342,396l-3,324q0,48 111,112q100,58 96,119q4,60-96,118Q490,750 490,798Z" />
      <glyph unicode="~" glyph-name="asciitilde" horiz-adv-x="1224" d="M273,576q80,156 156,180q66,22 168-132q85-129 246-128q120,1 200,74q95,88 100,202q6,135-85,138q-67,3-98-91Q913,677 833,680q-105,4-184,142Q587,934 451,935q-104,1-205-84Q146,766 111,648q-27-91 40-121q79-35 122,49Z" />
      <glyph unicode="&#xa0;" glyph-name="nonbreakingspace" horiz-adv-x="612" />
      <glyph unicode="&#xa1;" glyph-name="exclamdown" horiz-adv-x="487" d="M251,1362q30,8 50,27q23,19 34,46q9,23 9,48q0,34-17,63q-19,33-53,49q-25,13-54,13q-9-1-17-2q-39-5-67-30q-27-25-37-62q-3-11-3-31q1-17 4-33q6-30 33-55q23-23 54-32q16-4 33-4q16-1 31,3ZM210-63q2,0 4,0q86-2 85,86q0,1 0,2l-1,1118q0,88-81,86q-2,0-4,0q-91,0-91-80L121,27q0-90 89-90Z" />
      <glyph unicode="&#xa2;" glyph-name="cent" horiz-adv-x="1276" d="M636,1740q-89-1-90-112l-2-170q-186-42-314-231Q125,1072 125,874q0-286 95-399Q349,321 531,285q-1-61-2-123Q528,34 622,33q80-2 81,127l1,118q102,12 205,66q179,94 191,145q22,126-91,112q-36-5-173-90q-56-35-130-46l7,840q11-1 22-2q48-5 182-101q88-63 143,14q46,67-57,152q-38,32-168,88q-49,20-121,21q0,76 1,152q1,111-79,111Zm-94-460q-5-405-9-809Q431,499 355,598q-62,80-62,244q0,151 84,289q60,97 165,149Z" />
      <glyph unicode="&#xa3;" glyph-name="sterling" horiz-adv-x="1625" d="M307,924q1-14 3-29q-83,0-165-1Q44,893 41,803q-2-86 99-85q98,1 197,2q16-81 39-180Q449,227 253,53q-19-17-29-32q-32-37-10-89q34-80 178-7q75,38 127,41q126,7 289-66q102-46 230-50q185-6 314,100q95,77 108,246q8,94-80,104q-80,9-94-70q-19-119-48-144q-58-52-190-56Q931,27 822,74q-150,65-242,72q-20,1-49-3q68,181 34,325q-34,142-53,253q269,3 537,6q99,1 99,87q0,91-105,90l-554-7q-7,84 1,138q55,388 354,399q231,10 294-100q56-97 86-105q62-17 106,55q34,56-48,168q-127,174-459,156q-234-13-376-201Q287,1195 307,924Z" />
      <glyph unicode="&#xa4;" glyph-name="currency" horiz-adv-x="1253" d="M617,908q45-1 81-25q35-24 54-63q15-31 15-65q0-9-1-18q-6-43-33-77q-22-28-53-43q-30-14-67-14q-6-1-13,0q-43,5-72,25q-31,20-50,56q-17,31-17,71q0,43 23,80q21,35 57,54q34,19 73,19q1,0 3,0ZM132,1290q-73-65-6-138L307,954q-22-33-36-71q-23-63-23-129q0-31 6-62q14-76 56-138L144,370q-87-96-19-163q69-68 157,29L457,429q38-18 81-26q35-7 70-7q73,0 141,29q14,5 27,12L958,236q88-97 157-29q68,67-19,163L916,570q48,77 52,169q0,9 0,17q1,88-39,165q-5,9-10,17l195,214q67,73-6,138q-74,66-140-8L779,1073q-70,39-151,43q-10,1-19,1q-77-1-149-33q-3-1-6-3L272,1282q-66,74-140,8Z" />
      <glyph unicode="&#xa5;" glyph-name="yen" horiz-adv-x="1302" d="M178,1443q-66-36-30-99L521,700H392q-110,0-112-85q-2-80 108-80H580V472H392q-110,0-112-85q-2-80 108-80H580V34q0-90 84-89q76,0 76,90q0,136 0,272H952q106,0 100,86q-6,79-112,79H740v63H952q106,0 100,86q-6,79-112,79H791l373,644q36,63-30,99q-64,35-102-27L656,782L280,1416q-38,62-102,27Z" />
      <glyph unicode="&#xa6;" glyph-name="brokenbar" horiz-adv-x="828" d="M484,679q0,75-37.5,75t-75,0T334,679V38q0-81 81-81q70,0 70,81l-1,641Zm0,942q0,75-37.5,75t-75,0T334,1621V980q0-81 81-81q70,0 70,81l-1,641Z" />
      <glyph unicode="&#xa7;" glyph-name="section" horiz-adv-x="1300" d="M430,1012l10,8q47-29 116-58q40-16 186-108q126-79 158-162q10-28-27-83q-45,18-104,34q-214,57-258,77Q397,772 377,876q-13,64 53,136Zm581-500q57,52 74,96q54,126-43,255q-95,125-249,186q-176,70-246,126q-119,97-91,177q24,73 124,102q110,33 190,7q55-17 139-94q63-59 126-45q50,10 55,60q6,67-72,136q-56,49-136,82q-102,43-265,42q-123-1-226-83q-135-106-129-264q3-68 56-150q-84-65-106-147q-35-131 14-247q59-138 248-191q273-76 355-131q144-96 67-244q-38-74-180-97q-92-14-242,18q-92,21-173,101q-60,60-126,45q-50-10-55-60q-6-67 72-136Q248,7 328-26Q447-76 627-75q237,1 349,87q110,84 126,243q11,107-91,257Z" />
      <glyph unicode="&#xa8;" glyph-name="dieresis" horiz-adv-x="1139" d="M845,1370q-118,0-118-96q0-88 116-88q125,0 125,91q0,93-123,93Zm-505,0q-118,0-118-96q0-88 116-88q125,0 125,91q0,93-123,93Z" />
      <glyph unicode="&#xa9;" glyph-name="copyright" horiz-adv-x="1629" d="M987,800q-103-78-171-73q-80,8-142,93q-36,49-39,104q-1,40 21,116q18,63 116,96q88,30 174-42q106-88 157-28q47,57 0,123q-43,60-165,111q-88,38-207,6q-130-34-205-142q-70-100-70-253q0-90 74-211q83-134 287-144q133-7 242,87q97,82 60,141q-49,78-132,16ZM809,1452q142,0 263-70q117-68 189-193q69-120 69-259q0-142-71-264q-71-123-195-192q-119-67-256-67q-5,1-10,1q-150,3-264,75Q417,556 347,684q-61,115-61,246q0,6 0,13q3,139 72,257q69,117 193,185q123,67 257,67h1Zm-16,177q-187-3-341-91q-155-90-253-247Q108,1144 99,953q0-15 0-30q0-166 73-314q42-85 112-165q66-74 156-126Q617,216 806,216q8,0 16,0q206,5 377,120q95,62 150,132q59,74 104,171q59,132 59,284q1,31-2,61q-16,181-114,331q-100,150-263,234q-157,80-328,80q-6,0-12,0Z" />
      <glyph unicode="&#xaa;" glyph-name="ordfeminine" horiz-adv-x="1079" d="M423,918q133-10 282,87q20-132 145-106q109,22 24,168q-35,59-32,245q2,125 6,233q5,132-97,155q-61,14-90-11q-297,48-414-87q-116-135-109-333q13-331 285-351Zm95,208q-83-19-137,5q-58,26-66,135q-8,104 33,160q55,77 138,87q99,12 149-29l11-298q-33-38-128-60Z" />
      <glyph unicode="&#xab;" glyph-name="guillemotleft" horiz-adv-x="1183" d="M69,695q-48-42-49-90q0-35 56-80L459,216q68-55 122,6q62,70-5,126L251,618L564,884q87,74 35,140q-62,78-148,3L69,695Zm455,0q-48-42-49-90q0-35 56-80L914,216q68-55 122,6q62,70-5,126L706,618l313,266q87,74 35,140q-62,78-148,3L524,695Z" />
      <glyph unicode="&#xac;" glyph-name="logicalnot" horiz-adv-x="984" d="M49,646q1-85 96-85H742V332q0-85 94-84q79,1 79,86V628q0,7-1,13q0,2 0,5q-1,87-138,87H156Q48,733 49,646Z" />
      <glyph unicode="&#xad;" glyph-name="hyphenminus" horiz-adv-x="853" d="M184,620q-72,0-72-77q0-74 66-74l491-1q89,0 89,78q0,76-94,76l-480-2Z" />
      <glyph unicode="&#xae;" glyph-name="registered" horiz-adv-x="1629" d="M763,1183l81-10q60-6 57-84q-3-76-48-93q-30-11-103-4l13,191Zm194,121q-91,66-264,39q-88-14-92-93L568,648q-6-107 87-109q73-2 79,107l12,220q3-3 4-1L898,637q76-117 141-81q81,46 0,156L916,880q118,35 145,134q11,44 3,116q-12,104-107,174ZM793,1629q-187-3-341-91q-155-90-253-247Q108,1144 99,953q0-15 0-30q0-166 73-314q42-85 112-165q66-74 156-126Q617,216 806,216q8,0 16,0q206,5 377,120q95,62 150,132q59,74 104,171q59,132 59,284q1,31-2,61q-16,181-114,331q-100,150-263,234q-157,80-328,80q-6,0-12,0Zm16-177q142,0 263-70q117-68 189-193q69-120 69-259q0-142-71-264q-71-123-195-192q-119-67-256-67q-5,1-10,1q-150,3-264,75Q417,556 347,684q-61,115-61,246q0,6 0,13q3,139 72,257q69,117 193,185q123,67 257,67h1Z" />
      <glyph unicode="&#xaf;" glyph-name="overscore" horiz-adv-x="1284" d="M1323,1887H-35V1702H1323v185Z" />
      <glyph unicode="&#xb0;" glyph-name="degree" horiz-adv-x="838" d="M250,1210q-33,43-37,102q-1,8-1,16q0,48 22,91q25,51 72,81q48,30 106,31q1,0 3,0q58,0 108-31q52-32 77-87q18-40 18-85q0-15-2-29q-8-60-48-105q-29-33-68-51q-41-18-85-18q-5,0-10,0q-51,3-88,24q-35,19-67,61Zm159,470q-117-3-208-75q-90-71-121-183q-12-45-12-92q0-67 24-128q42-108 140-170q86-54 188-54q25,0 51,4q64,10 91.5,25.5t55,31T685,1101q66,72 81,182q3,23 3,46q0,79-34,151q-44,94-133,148q-85,52-184,52q-4,0-9,0Z" />
      <glyph unicode="&#xb1;" glyph-name="plusminus" horiz-adv-x="984" d="M173,52Q85,52 84-31q0-80 80-80l599-1q109,0 109,84q0,82-114,82L173,52Zm317,992q-90,1-90-100q0-104-1-208l-235-1q-91,0-91-91q-2-90 88-89q119,1 237,2q-1-118-2-235q-2-91 90-92q90-2 90,88V559q104,1 209,2q101,1 101,87q0,89-100,89l-210-1V942q0,101-86,102Z" />
      <glyph unicode="&#xb2;" glyph-name="twosuperior" horiz-adv-x="1333" d="M564,1054q2,58 184,157q188,101 202,255q10,116-48,180q-77,86-176,96q-136,14-202-25q-79-46-140-142q-43-66 30-105q59-32 103,30q43,60 94,89q55,31 118,9q86-30 71-117q-10-65-196-165q-198-106-220-278Q368,910 495,910H878q108,0 108,79q0,74-108,72l-314-7Z" />
      <glyph unicode="&#xb3;" glyph-name="threesuperior" horiz-adv-x="1333" d="M910,1466q3,110-80,171q-104,77-233,60q-158-20-132-118q15-56 95-33q150,42 198-57q38-78-98-117q-104-30-108-85q-4-75 137-78q101-2 109-103q6-68-83-89q-98-23-168-3q-125,36-132-64q-5-79 203-95q110-8 217,51q112,63 112,177q0,149-125,218q86,73 88,165Z" />
      <glyph unicode="&#xb4;" glyph-name="acute" horiz-adv-x="1139" d="M614,1636q-74,60-131-11L275,1365q-82-102-28-155q57-56 144,40l237,260q61,67-14,126Z" />
      <glyph unicode="&#xb5;" glyph-name="mu1" horiz-adv-x="1065" d="M864-77q70,0 92,93l221,934q26,107-87,110q-84,1-110-108L836,340Q753,209 579,213q-185,4-165,210q4,18 4,32q5,26 12,55L534,947q30,123-104,111q-58-5-90-129L223,457q-21-79-21-79L26-305Q0-404 128-404q70,0 94,93L316,47q93-64 266-65q99,0 178,31Q744-77 864-77Z" />
      <glyph unicode="&#xb6;" glyph-name="paragraph" horiz-adv-x="1421" d="M1144,1635q-92,0-94-93L1011-64q-3-107 87-109q106-2 110,107l38,1602q2,99-102,99Zm-378,0Q64,1635 64,995q0-556 581-596L634-64q-2-107 88-109q106-2 109,107l37,1602q2,99-102,99Z" />
      <glyph unicode="&#xb7;" glyph-name="periodcentered" horiz-adv-x="510" d="M264,841q-34,0-62-18q-26-18-43-47q-16-28-16-60q0-34 17-63q17-28 44-44q26-16 57-17q3,0 6,0q31-1 56,12q24,11 44,37q22,29 25,65q0,5 0,10q0,31-14,58q-16,32-47,50q-29,17-63,17q-2,0-4,0Z" />
      <glyph unicode="&#xb8;" glyph-name="cedilla" horiz-adv-x="1139" d="M452,73Q430-10 502-29q58-17 106-42q102-52 100-138q0-65-62-80q-56-13-125,18q-67,30-91,28q-58-6-62-42q-8-66 52-103q100-62 206-57q164,7 210,108Q924-143 770,0Q644,119 518,114q-56-2-66-41Z" />
      <glyph unicode="&#xb9;" glyph-name="onesuperior" horiz-adv-x="1333" d="M757,1622q2,90-54,102q-23,5-117-60l-120-83q-91-63-27-124q52-49 137,26l26,23l-2-470q-50,0-99,0q-100,0-100-68q1-65 91-65H855q100,0 100,71q0,61-103,61q-50,0-101,0q1,379 6,587Z" />
      <glyph unicode="&#xba;" glyph-name="ordmasculine" horiz-adv-x="1077" d="M320,1676q-100-35-173-117q-70-78-92-187q-8-40-8-81q0-66 20-127q34-102 113-175q82-76 192-99q41-9 84-9q68,0 132,22q110,38 180,121q73,86 92,197q6,34 5,69q-2,82-24,141q-36,100-120,172q-80,70-192,90q-35,6-72,6q-71,0-137-23Zm140-592h-2q-70,0-125,41q-56,42-76,109q-8,29-8,59q0,39 13,74q25,65 84,103q52,33 113,33q22,0 43-5q41-9 75-32q36-25 57-58q30-46 33-106q1-4 1-8q0-54-25-100q-26-49-76-80q-49-30-107-30Z" />
      <glyph unicode="&#xbb;" glyph-name="guillemotright" horiz-adv-x="1183" d="M577,723L195,1055q-86,75-148-3Q-5,986 82,912L395,646L70,376Q2,321 65,250q54-61 122-6L570,553q56,45 56,80q-1,48-49,90Zm453,0L648,1055q-86,75-148-3q-52-66 35-140L848,646L523,376q-68-55-5-126q54-61 122-6l383,309q56,45 56,80q-1,48-49,90Z" />
      <glyph unicode="&#xbc;" glyph-name="onequarter" horiz-adv-x="1333" d="M757,1622q2,90-54,102q-23,5-117-60l-120-83q-91-63-27-124q52-49 137,26l26,23l-2-470q-50,0-99,0q-100,0-100-68q1-65 91-65H855q100,0 100,71q0,61-103,61q-50,0-101,0q1,379 6,587ZM682,249l1-231H477L682,249ZM288-83q17-25 74-25l322,1V-247q0-93 36-93t72,0t36,93v140h96q77,0 77,58q0,66-77,66q-48,1-96,1q0,290-1,377q-2,83-29,101q-60,42-133-41L305,47Q246-20 288-83ZM277,735q-117,0-117-77q0-74 106-74h795q144,0 144,77q-1,76-152,76l-776-2Z" />
      <glyph unicode="&#xbd;" glyph-name="onehalf" horiz-adv-x="1333" d="M277,735q-117,0-117-77q0-74 106-74h795q144,0 144,77q-1,76-152,76l-776-2Zm480,887q2,90-54,102q-23,5-117-60l-120-83q-91-63-27-124q52-49 137,26l26,23l-2-470q-50,0-99,0q-100,0-100-68q1-65 91-65H855q100,0 100,71q0,61-103,61q-50,0-101,0q1,379 6,587ZM564-208q2,58 184,157Q936,50 950,204q10,116-48,180q-77,86-176,96q-136,14-202-25q-79-46-140-142q-43-66 30-105q59-32 103,30q43,60 94,89q55,31 118,9q86-30 71-117Q790,154 604,54Q406-52 384-224Q368-352 495-352H878q108,0 108,79q0,74-108,72l-314-7Z" />
      <glyph unicode="&#xbe;" glyph-name="threequarters" horiz-adv-x="1333" d="M910,1466q3,110-80,171q-104,77-233,60q-158-20-132-118q15-56 95-33q150,42 198-57q38-78-98-117q-104-30-108-85q-4-75 137-78q101-2 109-103q6-68-83-89q-98-23-168-3q-125,36-132-64q-5-79 203-95q110-8 217,51q112,63 112,177q0,149-125,218q86,73 88,165ZM277,735q-117,0-117-77q0-74 106-74h795q144,0 144,77q-1,76-152,76l-776-2ZM682,249l1-231H477L682,249ZM288-83q17-25 74-25l322,1V-247q0-93 36-93t72,0t36,93v140h96q77,0 77,58q0,66-77,66q-48,1-96,1q0,290-1,377q-2,83-29,101q-60,42-133-41L305,47Q246-20 288-83Z" />
      <glyph unicode="&#xbf;" glyph-name="questiondown" horiz-adv-x="1073" d="M684,1229q30,8 50,27q23,19 34,46q9,23 9,48q0,34-17,63q-19,33-53,49q-25,13-54,13q-9-1-17-2q-39-5-67-30q-27-25-37-62q-3-11-3-31q1-17 4-33q6-30 33-55q23-23 54-32q16-4 33-4q16-1 31,3ZM904,66q102,117 10,189q-54,42-178-69q-80-71-218-54Q368,150 341,285Q300,491 504,554q205,64 230,271q28,229-108,222q-90-5-94-204q0-84-188-135Q78,635 134,249Q180-79 526-72Q786-67 904,66Z" />
      <glyph unicode="&#xc0;" glyph-name="Agrave" horiz-adv-x="1498" d="M888,1363q-60,166-145,166q-86,0-146-166L152,122Q104-15 202-44Q298-71 346,66L503,501H983L1140,66q49-138 144-110q99,29 50,166L888,1363ZM743,1167L909,706l-333-2l167,463ZM380,2098q-75-59-14-126l237-260q88-96 144-40q53,53-28,155L511,2087q-57,71-131,11Z" />
      <glyph unicode="&#xc1;" glyph-name="Aacute" horiz-adv-x="1498" d="M888,1363q-60,166-145,166q-86,0-146-166L152,122Q104-15 202-44Q298-71 346,66L503,501H983L1140,66q49-138 144-110q99,29 50,166L888,1363ZM743,1167L909,706l-333-2l167,463Zm371,931q-74,60-131-11L775,1827q-82-102-28-155q57-56 144,40l237,260q61,67-14,126Z" />
      <glyph unicode="&#xc2;" glyph-name="Acircumflex" horiz-adv-x="1498" d="M888,1363q-60,166-145,166q-86,0-146-166L152,122Q104-15 202-44Q298-71 346,66L503,501H983L1140,66q49-138 144-110q99,29 50,166L888,1363ZM743,1167L909,706l-333-2l167,463Zm4,1008q-43,1-87-48L383,1821q-70-77-22-129q78-80 148-3l238,262l240-262q70-77 146,3q50,52-20,129L835,2127q-45,49-88,48Z" />
      <glyph unicode="&#xc3;" glyph-name="Atilde" horiz-adv-x="1498" d="M888,1363q-60,166-145,166q-86,0-146-166L152,122Q104-15 202-44Q298-71 346,66L503,501H983L1140,66q49-138 144-110q99,29 50,166L888,1363ZM743,1167L909,706l-333-2l167,463ZM442,1717q70,140 137,162q58,19 148-119q75-116 217-115q105,0 176,66q84,79 88,182q5,121-75,124q-59,3-86-82q-42-128-112-125q-93,4-162,128q-55,101-175,102q-91,1-180-76q-88-76-119-183q-24-82 35-109q70-31 108,45Z" />
      <glyph unicode="&#xc4;" glyph-name="Adieresis" horiz-adv-x="1498" d="M888,1363q-60,166-145,166q-86,0-146-166L152,122Q104-15 202-44Q298-71 346,66L503,501H983L1140,66q49-138 144-110q99,29 50,166L888,1363ZM743,1167L909,706l-333-2l167,463Zm255,668q-118,0-118-96q0-88 116-88q125,0 125,91q0,93-123,93Zm-505,0q-118,0-118-96q0-88 116-88q125,0 125,91q0,93-123,93Z" />
      <glyph unicode="&#xc5;" glyph-name="Aring" horiz-adv-x="1498" d="M888,1363q-60,166-145,166q-86,0-146-166L152,122Q104-15 202-44Q298-71 346,66L503,501H983L1140,66q49-138 144-110q99,29 50,166L888,1363ZM743,1167L909,706l-333-2l167,463ZM567,1618q-33,43-37,102q-1,8-1,16q0,48 22,91q25,51 72,81q48,30 106,31q1,0 3,0q58,0 108-31q52-32 77-87q18-40 18-85q0-15-2-29q-8-60-48-105q-29-33-68-51q-41-18-85-18q-5,0-10,0q-51,3-88,24q-35,19-67,61Zm159,470q-117-3-208-75q-90-71-121-183q-12-45-12-92q0-67 24-128q42-108 140-170q86-54 188-54q25,0 51,4q64,10 91.5,25.5t55,31T1002,1509q66,72 81,182q3,23 3,46q0,79-34,151q-44,94-133,148q-85,52-184,52q-4,0-9,0Z" />
      <glyph unicode="&#xc6;" glyph-name="AE" horiz-adv-x="2226" d="M1356,1507q-12,0-23-2q-16,3-37,3q-10,0-21-1q-62-3-123-74L81,199Q9,117 84,55q81-66 153,17L797,721h388L1169,49q-3-101 87-103q8,0 16,0q10-2 22-2l700,4q141,1 138,94q-3,117-144,116l-620-4l14,571q281,1 563,3q141,0 138,93q-3,118-144,117l-553-4l9,363q330,2 661,4q141,1 138,94q-3,117-144,116l-694-4ZM982,936l215,249l-6-249H982Z" />
      <glyph unicode="&#xc7;" glyph-name="Ccedilla" horiz-adv-x="1234" d="M545,1244q114,75 247,45q89-21 158-68q75-52 146,14q39,38 35,111q-4,57-131,122q-167,85-375,52q-218-35-414-311Q77,1018 77,649Q76,340 222,148Q366-42 608-50Q792-57 951,9q193,79 201,155q15,135-82,153q-56,12-198-79q-98-64-279-55q-127,6-203,121q-95,146-95,369q0,242 82,383q73,125 168,188ZM511,110Q489,27 561,8Q619-9 667-34Q769-86 767-172q0-65-62-80q-56-13-125,18q-67,30-91,28q-58-6-62-42q-8-66 52-103q100-62 206-57q164,7 210,108q88,194-66,337Q703,156 577,151q-56-2-66-41Z" />
      <glyph unicode="&#xc8;" glyph-name="Egrave" horiz-adv-x="1279" d="M352,1501q-12,0-23-2q-16,3-37,3q-92-1-94-86L165,63Q162-37 252-39q8,0 16,0q10-2 22-2l700,4q141,1 138,93q-3,115-144,114l-620-3l14,562l563,3q141,2 138,93q-3,115-144,114l-553-3l9,358q330,2 661,4q141,0 138,92q-3,116-144,115l-694-4Zm332,580q-75-59-14-126l237-260q88-96 144-40q53,53-28,155L815,2070q-57,71-131,11Z" />
      <glyph unicode="&#xc9;" glyph-name="Eacute" horiz-adv-x="1279" d="M352,1501q-12,0-23-2q-16,3-37,3q-92-1-94-86L165,63Q162-37 252-39q8,0 16,0q10-2 22-2l700,4q141,1 138,93q-3,115-144,114l-620-3l14,562l563,3q141,2 138,93q-3,115-144,114l-553-3l9,358q330,2 661,4q141,0 138,92q-3,116-144,115l-694-4Zm748,583q-74,60-131-11L761,1813q-82-102-28-155q57-56 144,40l237,260q61,67-14,126Z" />
      <glyph unicode="&#xca;" glyph-name="Ecircumflex" horiz-adv-x="1279" d="M352,1501q-12,0-23-2q-16,3-37,3q-92-1-94-86L165,63Q162-37 252-39q8,0 16,0q10-2 22-2l700,4q141,1 138,93q-3,115-144,114l-620-3l14,562l563,3q141,2 138,93q-3,115-144,114l-553-3l9,358q330,2 661,4q141,0 138,92q-3,116-144,115l-694-4Zm385,663q-43,1-87-48L373,1810q-70-77-22-129q78-80 148-3l238,262l240-262q70-77 146,3q50,52-20,129L825,2116q-45,49-88,48Z" />
      <glyph unicode="&#xcb;" glyph-name="Edieresis" horiz-adv-x="1279" d="M352,1501q-12,0-23-2q-16,3-37,3q-92-1-94-86L165,63Q162-37 252-39q8,0 16,0q10-2 22-2l700,4q141,1 138,93q-3,115-144,114l-620-3l14,562l563,3q141,2 138,93q-3,115-144,114l-553-3l9,358q330,2 661,4q141,0 138,92q-3,116-144,115l-694-4Zm690,320q-118,0-118-96q0-88 116-88q125,0 125,91q0,93-123,93Zm-505,0q-118,0-118-96q0-88 116-88q125,0 125,91q0,93-123,93Z" />
      <glyph unicode="&#xcc;" glyph-name="Igrave" horiz-adv-x="1119" d="M216,1494q-135,0-135-95q0-112 126-112H444L415,165H202Q67,166 67,71Q67-42 193-42H925q131,0 129,99q-2,108-123,108H611l28,1122H939q131,0 129,99q-2,108-123,108H216Zm158,572q-75-59-14-126l237-260q88-96 144-40q53,53-28,155L505,2055q-57,71-131,11Z" />
      <glyph unicode="&#xcd;" glyph-name="Iacute" horiz-adv-x="1119" d="M216,1494q-135,0-135-95q0-112 126-112H444L415,165H202Q67,166 67,71Q67-42 193-42H925q131,0 129,99q-2,108-123,108H611l28,1122H939q131,0 129,99q-2,108-123,108H216Zm598,578q-74,60-131-11L475,1801q-82-102-28-155q57-56 144,40l237,260q61,67-14,126Z" />
      <glyph unicode="&#xce;" glyph-name="Icircumflex" horiz-adv-x="1119" d="M216,1494q-135,0-135-95q0-112 126-112H444L415,165H202Q67,166 67,71Q67-42 193-42H925q131,0 129,99q-2,108-123,108H611l28,1122H939q131,0 129,99q-2,108-123,108H216Zm369,664q-43,1-87-48L221,1804q-70-77-22-129q78-80 148-3l238,262l240-262q70-77 146,3q50,52-20,129L673,2110q-45,49-88,48Z" />
      <glyph unicode="&#xcf;" glyph-name="Idieresis" horiz-adv-x="1119" d="M216,1494q-135,0-135-95q0-112 126-112H444L415,165H202Q67,166 67,71Q67-42 193-42H925q131,0 129,99q-2,108-123,108H611l28,1122H939q131,0 129,99q-2,108-123,108H216Zm620,324q-118,0-118-96q0-88 116-88q125,0 125,91q0,93-123,93Zm-505,0q-118,0-118-96q0-88 116-88q125,0 125,91q0,93-123,93Z" />
      <glyph unicode="&#xd0;" glyph-name="Eth" horiz-adv-x="1478" d="M64,583l592-1q112,0 110,92q-2,109-114,109H70Q-41,783-44,680q-3-97 108-97Zm246,942q-90,0-92-89L184,51Q181-52 272-54q20,0 35,3q93-5 303-2q358,5 482,105q269,216 284,487q23,371-367,704q-273,233-631,274q-12,2-24,3q-20,5-44,5Zm99-235q265-14 474-209q308-283 291-532q-9-143-145-294Q928,143 598,135l-215,3l26,1152Z" />
      <glyph unicode="&#xd1;" glyph-name="Ntilde" horiz-adv-x="1632" d="M1326,331L335,1473q-26,30-79,29q-90-2-92-87L130,60Q127-40 218-42Q325-44 327,58l23,1087L1335,23q28-32 73-34q108-4 110,100l31,1351q2,93-102,93q-91-2-93-87L1326,331ZM555,1724q70,140 137,162q58,19 148-119q75-116 217-115q105,0 176,66q84,79 88,182q5,121-75,124q-59,3-86-82q-42-128-112-125q-93,4-162,128q-55,101-175,102q-91,1-180-76q-88-76-119-183q-24-82 35-109q70-31 108,45Z" />
      <glyph unicode="&#xd2;" glyph-name="Ograve" horiz-adv-x="1635" d="M955,1313q399-27 393-435q-4-323-225-588Q1001,143 787,143q-221,0-351,135Q325,393 325,575q0,361 243,595q164,158 387,143Zm-12,199q-358,4-567-238Q115,970 115,573q0-254 144-413Q461-63 787-63q313,0 519,248q242,290 243,694q1,626-606,633ZM574,2081q-75-59-14-126l237-260q88-96 144-40q53,53-28,155L705,2070q-57,71-131,11Z" />
      <glyph unicode="&#xd3;" glyph-name="Oacute" horiz-adv-x="1635" d="M955,1313q399-27 393-435q-4-323-225-588Q1001,143 787,143q-221,0-351,135Q325,393 325,575q0,361 243,595q164,158 387,143Zm-12,199q-358,4-567-238Q115,970 115,573q0-254 144-413Q461-63 787-63q313,0 519,248q242,290 243,694q1,626-606,633Zm365,569q-74,60-131-11L969,1810q-82-102-28-155q57-56 144,40l237,260q61,67-14,126Z" />
      <glyph unicode="&#xd4;" glyph-name="Ocircumflex" horiz-adv-x="1635" d="M955,1313q399-27 393-435q-4-323-225-588Q1001,143 787,143q-221,0-351,135Q325,393 325,575q0,361 243,595q164,158 387,143Zm-12,199q-358,4-567-238Q115,970 115,573q0-254 144-413Q461-63 787-63q313,0 519,248q242,290 243,694q1,626-606,633Zm-2,646q-43,1-87-48L577,1804q-70-77-22-129q78-80 148-3l238,262l240-262q70-77 146,3q50,52-20,129l-278,306q-45,49-88,48Z" />
      <glyph unicode="&#xd5;" glyph-name="Otilde" horiz-adv-x="1635" d="M955,1313q399-27 393-435q-4-323-225-588Q1001,143 787,143q-221,0-351,135Q325,393 325,575q0,361 243,595q164,158 387,143Zm-12,199q-358,4-567-238Q115,970 115,573q0-254 144-413Q461-63 787-63q313,0 519,248q242,290 243,694q1,626-606,633ZM636,1700q70,140 137,162q58,19 148-119q75-116 217-115q105,0 176,66q84,79 88,182q5,121-75,124q-59,3-86-82q-42-128-112-125q-93,4-162,128q-55,101-175,102q-91,1-180-76q-88-76-119-183q-24-82 35-109q70-31 108,45Z" />
      <glyph unicode="&#xd6;" glyph-name="Odieresis" horiz-adv-x="1635" d="M955,1313q399-27 393-435q-4-323-225-588Q1001,143 787,143q-221,0-351,135Q325,393 325,575q0,361 243,595q164,158 387,143Zm-12,199q-358,4-567-238Q115,970 115,573q0-254 144-413Q461-63 787-63q313,0 519,248q242,290 243,694q1,626-606,633Zm250,306q-118,0-118-96q0-88 116-88q125,0 125,91q0,93-123,93Zm-505,0q-118,0-118-96q0-88 116-88q125,0 125,91q0,93-123,93Z" />
      <glyph unicode="&#xd7;" glyph-name="multiply" horiz-adv-x="984" d="M123,973q-74-59 24-156L334,631L151,451q-93-91-28-160q60-64 121-3L461,504L678,288q61-61 121,3q65,69-28,160L588,631L775,817q98,97 24,156q-65,53-134-15L461,757L257,958q-68,67-134,15Z" />
      <glyph unicode="&#xd8;" glyph-name="Oslash" horiz-adv-x="1635" d="M256-48L1596,1378q80,85 0,147q-70,55-153-33L115,90Q41,12 109-54q74-72 147,6ZM967,1313q399-27 393-435q-4-323-225-588Q1013,143 799,143q-221,0-351,135Q337,393 337,575q0,361 243,595q164,158 387,143Zm-12,199q-358,4-567-238Q127,970 127,573q0-254 144-413Q473-63 799-63q313,0 519,248q242,290 243,694q1,626-606,633Z" />
      <glyph unicode="&#xd9;" glyph-name="Ugrave" horiz-adv-x="1509" d="M-587,1999Zm1872-514q-99,2-102-153l-12-567q-13-620-399-626q-415-7-411,638l3,547q1,173-99,174q-101,0-102-199l-3-537Q155-39 767-40q587-1 608,784l15,567q5,172-105,174ZM499,2087q-75-59-14-126l237-260q88-96 144-40q53,53-28,155L630,2076q-57,71-131,11Z" />
      <glyph unicode="&#xda;" glyph-name="Uacute" horiz-adv-x="1509" d="M-587,1999Zm1872-514q-99,2-102-153l-12-567q-13-620-399-626q-415-7-411,638l3,547q1,173-99,174q-101,0-102-199l-3-537Q155-39 767-40q587-1 608,784l15,567q5,172-105,174ZM960,2081q-74,60-131-11L621,1810q-82-102-28-155q57-56 144,40l237,260q61,67-14,126Z" />
      <glyph unicode="&#xdb;" glyph-name="Ucircumflex" horiz-adv-x="1509" d="M-587,1999Zm1872-514q-99,2-102-153l-12-567q-13-620-399-626q-415-7-411,638l3,547q1,173-99,174q-101,0-102-199l-3-537Q155-39 767-40q587-1 608,784l15,567q5,172-105,174ZM753,2164q-43,1-87-48L389,1810q-70-77-22-129q78-80 148-3l238,262l240-262q70-77 146,3q50,52-20,129L841,2116q-45,49-88,48Z" />
      <glyph unicode="&#xdc;" glyph-name="Udieresis" horiz-adv-x="1509" d="M-587,1999Zm1872-514q-99,2-102-153l-12-567q-13-620-399-626q-415-7-411,638l3,547q1,173-99,174q-101,0-102-199l-3-537Q155-39 767-40q587-1 608,784l15,567q5,172-105,174Zm-272,333q-118,0-118-96q0-88 116-88q125,0 125,91q0,93-123,93Zm-505,0q-118,0-118-96q0-88 116-88q125,0 125,91q0,93-123,93Z" />
      <glyph unicode="&#xdd;" glyph-name="Yacute" horiz-adv-x="1301" d="M1171,1496q-88,48-138-55L680,711L226,1446q-64,104-150,45q-79-54-30-133L577,500L418,170Q340,9 421-30Q532-87 595,47l624,1323q38,80-48,126ZM863,2087q-74,60-131-11L524,1816q-82-102-28-155q57-56 144,40l237,260q61,67-14,126Z" />
      <glyph unicode="&#xde;" glyph-name="Thorn" horiz-adv-x="1066" d="M246,1638q-100-2-104-156L100,94Q96-23 186-23q92,0 96,117q10,290 8,291q710-21 716,433q8,590-684,515q3,77 6,153q4,154-82,152Zm70-480q516,29 510-322q-6-260-530-261l20,583Z" />
      <glyph unicode="&#xdf;" glyph-name="germandbls" horiz-adv-x="908" d="M126-156Q240-167 244-36l20,963q4,167 46,282q70,195 212,171q132-22 118-237q-6-84-174-228q-76-64-63-123q-5-34 59-78Q644,587 678,446q50-216-16-289q-75-82-207-6q-157,90-150-42Q314-52 533-74Q751-97 848,85q73,138 8,407Q814,669 640,822q212,231 204,339q-34,476-454,393Q100,1496 82,933L50-18q-4-131 76-138Z" />
      <glyph unicode="&#xe0;" glyph-name="agrave" horiz-adv-x="1048" d="M504-56q93,1 300,106Q824-82 949-56q109,22 24,168q-58,100-54,340q5,301 28,426q23,128-97,155q-61,14-90-11q-262,83-502-114Q49,737 52,424Q55-57 504-56ZM620,145q-76-28-163-22Q250,137 247,443q9,235 187,364q44,33 118,51q106,26 203-35q-46-162-10-592q-89-73-125-86ZM243,1618q-75-59-14-126l237-260q88-96 144-40q53,53-28,155L374,1607q-57,71-131,11Z" />
      <glyph unicode="&#xe1;" glyph-name="aacute" horiz-adv-x="1048" d="M504-56q93,1 300,106Q824-82 949-56q109,22 24,168q-58,100-54,340q5,301 28,426q23,128-97,155q-61,14-90-11q-262,83-502-114Q49,737 52,424Q55-57 504-56ZM620,145q-76-28-163-22Q250,137 247,443q9,235 187,364q44,33 118,51q106,26 203-35q-46-162-10-592q-89-73-125-86ZM977,1618q-74,60-131-11L638,1347q-82-102-28-155q57-56 144,40l237,260q61,67-14,126Z" />
      <glyph unicode="&#xe2;" glyph-name="acircumflex" horiz-adv-x="1048" d="M504-56q93,1 300,106Q824-82 949-56q109,22 24,168q-58,100-54,340q5,301 28,426q23,128-97,155q-61,14-90-11q-262,83-502-114Q49,737 52,424Q55-57 504-56ZM620,145q-76-28-163-22Q250,137 247,443q9,235 187,364q44,33 118,51q106,26 203-35q-46-162-10-592q-89-73-125-86Zm-9,1550q-43,1-87-48L247,1341q-70-77-22-129q78-80 148-3l238,262l240-262q70-77 146,3q50,52-20,129L699,1647q-45,49-88,48Z" />
      <glyph unicode="&#xe3;" glyph-name="atilde" horiz-adv-x="1048" d="M504-56q93,1 300,106Q824-82 949-56q109,22 24,168q-58,100-54,340q5,301 28,426q23,128-97,155q-61,14-90-11q-262,83-502-114Q49,737 52,424Q55-57 504-56ZM620,145q-76-28-163-22Q250,137 247,443q9,235 187,364q44,33 118,51q106,26 203-35q-46-162-10-592q-89-73-125-86ZM306,1237q70,140 137,162q58,19 148-119q75-116 217-115q105,0 176,66q84,79 88,182q5,121-75,124q-59,3-86-82q-42-128-112-125q-93,4-162,128q-55,101-175,102q-91,1-180-76q-88-76-119-183q-24-82 35-109q70-31 108,45Z" />
      <glyph unicode="&#xe4;" glyph-name="adieresis" horiz-adv-x="1048" d="M504-56q93,1 300,106Q824-82 949-56q109,22 24,168q-58,100-54,340q5,301 28,426q23,128-97,155q-61,14-90-11q-262,83-502-114Q49,737 52,424Q55-57 504-56ZM620,145q-76-28-163-22Q250,137 247,443q9,235 187,364q44,33 118,51q106,26 203-35q-46-162-10-592q-89-73-125-86ZM862,1355q-118,0-118-96q0-88 116-88q125,0 125,91q0,93-123,93Zm-505,0q-118,0-118-96q0-88 116-88q125,0 125,91q0,93-123,93Z" />
      <glyph unicode="&#xe5;" glyph-name="aring" horiz-adv-x="1048" d="M504-56q93,1 300,106Q824-82 949-56q109,22 24,168q-58,100-54,340q5,301 28,426q23,128-97,155q-61,14-90-11q-262,83-502-114Q49,737 52,424Q55-57 504-56ZM620,145q-76-28-163-22Q250,137 247,443q9,235 187,364q44,33 118,51q106,26 203-35q-46-162-10-592q-89-73-125-86ZM449,1381q-33,43-37,102q-1,8-1,16q0,48 22,91q25,51 72,81q48,30 106,31q1,0 3,0q58,0 108-31q52-32 77-87q18-40 18-85q0-15-2-29q-8-60-48-105q-29-33-68-51q-41-18-85-18q-5,0-10,0q-51,3-88,24q-35,19-67,61Zm159,470q-117-3-208-75q-90-71-121-183q-12-45-12-92q0-67 24-128q42-108 140-170q86-54 188-54q25,0 51,4q64,10 91.5,25.5t55,31T884,1272q66,72 81,182q3,23 3,46q0,79-34,151q-44,94-133,148q-85,52-184,52q-4,0-9,0Z" />
      <glyph unicode="&#xe6;" glyph-name="ae" horiz-adv-x="1867" d="M518-56q93,1 300,106Q838-82 963-56q109,22 24,168q-58,100-54,340q5,301 28,426q23,128-97,155q-61,14-90-11q-262,83-502-114Q63,737 66,424Q69-57 518-56ZM634,145q-76-28-163-22Q264,137 261,443q9,235 187,364q44,33 118,51q106,26 203-35q-46-162-10-592q-89-73-125-86ZM972,433l672,97q107,15 111,138q5,153-118,273q-130,128-361,114q-222-14-362-215Q802,679 802,473q0-250 178-396Q1123-41 1314-43q260-2 420,140q91,81 44,174q-20,40-68,30q-43-9-110-84q-70-78-274-80q-140-1-252,98q-97,85-102,198Zm22,165q28,99 72,154q100,123 238,123q99,1 187-55q76-49 91-136L994,598Z" />
      <glyph unicode="&#xe7;" glyph-name="ccedilla" horiz-adv-x="1052" d="M811,211q-118-80-254-75q-132,5-206,104q-81,111-78,245q3,142 79,252q67,96 150,122q148,47 265-40q97-72 144-38q68,49 7,145q-40,62-161,103q-98,32-217,23q-204-15-336-206Q95,689 95,443Q95,220 248,72Q371-47 557-48q236-1 346,93q85,75 52,131q-56,94-144,35ZM412,97Q390,14 462-5q58-17 106-42Q670-99 668-185q0-65-62-80q-56-13-125,18q-67,30-91,28q-58-6-62-42q-8-66 52-103q100-62 206-57q164,7 210,108q88,194-66,337Q604,143 478,138q-56-2-66-41Z" />
      <glyph unicode="&#xe8;" glyph-name="egrave" horiz-adv-x="1122" d="M259,433l672,97q107,15 111,138q5,153-118,273q-130,128-361,114q-222-14-362-215Q89,679 89,473Q89,223 267,77Q410-41 601-43q260-2 420,140q91,81 44,174q-20,40-68,30q-43-9-110-84q-70-78-274-80q-140-1-252,98q-97,85-102,198Zm22,165q28,99 72,154Q453,875 591,875q99,1 187-55q76-49 91-136L281,598ZM244,1625q-75-59-14-126l237-260q88-96 144-40q53,53-28,155L375,1614q-57,71-131,11Z" />
      <glyph unicode="&#xe9;" glyph-name="eacute" horiz-adv-x="1122" d="M259,433l672,97q107,15 111,138q5,153-118,273q-130,128-361,114q-222-14-362-215Q89,679 89,473Q89,223 267,77Q410-41 601-43q260-2 420,140q91,81 44,174q-20,40-68,30q-43-9-110-84q-70-78-274-80q-140-1-252,98q-97,85-102,198Zm22,165q28,99 72,154Q453,875 591,875q99,1 187-55q76-49 91-136L281,598ZM978,1625q-74,60-131-11L639,1354q-82-102-28-155q57-56 144,40l237,260q61,67-14,126Z" />
      <glyph unicode="&#xea;" glyph-name="ecircumflex" horiz-adv-x="1122" d="M259,433l672,97q107,15 111,138q5,153-118,273q-130,128-361,114q-222-14-362-215Q89,679 89,473Q89,223 267,77Q410-41 601-43q260-2 420,140q91,81 44,174q-20,40-68,30q-43-9-110-84q-70-78-274-80q-140-1-252,98q-97,85-102,198Zm22,165q28,99 72,154Q453,875 591,875q99,1 187-55q76-49 91-136L281,598ZM612,1702q-43,1-87-48L248,1348q-70-77-22-129q78-80 148-3l238,262l240-262q70-77 146,3q50,52-20,129L700,1654q-45,49-88,48Z" />
      <glyph unicode="&#xeb;" glyph-name="edieresis" horiz-adv-x="1122" d="M259,433l672,97q107,15 111,138q5,153-118,273q-130,128-361,114q-222-14-362-215Q89,679 89,473Q89,223 267,77Q410-41 601-43q260-2 420,140q91,81 44,174q-20,40-68,30q-43-9-110-84q-70-78-274-80q-140-1-252,98q-97,85-102,198Zm22,165q28,99 72,154Q453,875 591,875q99,1 187-55q76-49 91-136L281,598Zm582,764q-118,0-118-96q0-88 116-88q125,0 125,91q0,93-123,93Zm-505,0q-118,0-118-96q0-88 116-88q125,0 125,91q0,93-123,93Z" />
      <glyph unicode="&#xec;" glyph-name="igrave" horiz-adv-x="574" d="M305,1047q-101,2-104-131L184,77Q181-49 288-50q94,0 96,135l14,832q2,128-93,130ZM51,1612q-75-59-14-126l237-260q88-96 144-40q53,53-28,155L182,1601q-57,71-131,11Z" />
      <glyph unicode="&#xed;" glyph-name="iacute" horiz-adv-x="574" d="M305,1047q-101,2-104-131L184,77Q181-49 288-50q94,0 96,135l14,832q2,128-93,130Zm219,571q-74,60-131-11L185,1347q-82-102-28-155q57-56 144,40l237,260q61,67-14,126Z" />
      <glyph unicode="&#xee;" glyph-name="icircumflex" horiz-adv-x="574" d="M305,1047q-101,2-104-131L184,77Q181-49 288-50q94,0 96,135l14,832q2,128-93,130Zm3,648q-43,1-87-48L-56,1341q-70-77-22-129q78-80 148-3l238,262l240-262q70-77 146,3q50,52-20,129L396,1647q-45,49-88,48Z" />
      <glyph unicode="&#xef;" glyph-name="idieresis" horiz-adv-x="574" d="M305,1047q-101,2-104-131L184,77Q181-49 288-50q94,0 96,135l14,832q2,128-93,130Zm254,308q-118,0-118-96q0-88 116-88q125,0 125,91q0,93-123,93Zm-505,0q-118,0-118-96q0-88 116-88q125,0 125,91q0,93-123,93Z" />
      <glyph unicode="&#xf0;" glyph-name="eth" horiz-adv-x="1042" d="M322,1491q-42-60 44-132q48-40 92-87l-130-70q-119-64-67-153q44-76 163-12l153,83q60-91 111-201Q349,848 239,589Q86,228 357,29Q569-126 798,39Q947,148 987,423q45,306-189,692q-29,48-59,92l102,55q132,71 89,150q-47,85-179,15l-129-68q-74,83-154,146q-88,69-146-14ZM752,763q13-35 25-71q63-192 15-342Q721,130 648.5,135.5T503.5,146T390,251q-65,159 31,326q64,110 267,165q36,10 64,21Z" />
      <glyph unicode="&#xf1;" glyph-name="ntilde" horiz-adv-x="1072" d="M250,1094q-92,0-94-93L133,71Q130-36 220-38Q327-40 330,69l16,605Q505,833 644,823q165-12 158-288L790,61Q787-60 896-50q94,8 96,129l8,500q7,455-371,456q-170,0-279-99q1,30 2,59q3,99-102,99Zm37,188q70,140 137,162q58,19 148-119q75-116 217-115q105,0 176,66q84,79 88,182q5,121-75,124q-59,3-86-82q-42-128-112-125q-93,4-162,128q-55,101-175,102q-91,1-180-76q-88-76-119-183q-24-82 35-109q70-31 108,45Z" />
      <glyph unicode="&#xf2;" glyph-name="ograve" horiz-adv-x="1077" d="M574,845q211,4 210-352q-1-188-80-273q-75-80-184-80q-96,0-170,80q-72,78-72,235q0,163 100,299q65,88 196,91Zm-8,204q-218,2-350-172Q82,701 82,473Q82,232 194,99Q318-48 496-49q246-2 366,151Q969,229 970,473q1,573-404,576ZM200,1618q-75-59-14-126l237-260q88-96 144-40q53,53-28,155L331,1607q-57,71-131,11Z" />
      <glyph unicode="&#xf3;" glyph-name="oacute" horiz-adv-x="1077" d="M574,845q211,4 210-352q-1-188-80-273q-75-80-184-80q-96,0-170,80q-72,78-72,235q0,163 100,299q65,88 196,91Zm-8,204q-218,2-350-172Q82,701 82,473Q82,232 194,99Q318-48 496-49q246-2 366,151Q969,229 970,473q1,573-404,576Zm368,569q-74,60-131-11L595,1347q-82-102-28-155q57-56 144,40l237,260q61,67-14,126Z" />
      <glyph unicode="&#xf4;" glyph-name="ocircumflex" horiz-adv-x="1077" d="M574,845q211,4 210-352q-1-188-80-273q-75-80-184-80q-96,0-170,80q-72,78-72,235q0,163 100,299q65,88 196,91Zm-8,204q-218,2-350-172Q82,701 82,473Q82,232 194,99Q318-48 496-49q246-2 366,151Q969,229 970,473q1,573-404,576Zm2,646q-43,1-87-48L204,1341q-70-77-22-129q78-80 148-3l238,262l240-262q70-77 146,3q50,52-20,129L656,1647q-45,49-88,48Z" />
      <glyph unicode="&#xf5;" glyph-name="otilde" horiz-adv-x="1077" d="M574,845q211,4 210-352q-1-188-80-273q-75-80-184-80q-96,0-170,80q-72,78-72,235q0,163 100,299q65,88 196,91Zm-8,204q-218,2-350-172Q82,701 82,473Q82,232 194,99Q318-48 496-49q246-2 366,151Q969,229 970,473q1,573-404,576ZM262,1237q70,140 137,162q58,19 148-119q75-116 217-115q105,0 176,66q84,79 88,182q5,121-75,124q-59,3-86-82q-42-128-112-125q-93,4-162,128q-55,101-175,102q-91,1-180-76q-88-76-119-183q-24-82 35-109q70-31 108,45Z" />
      <glyph unicode="&#xf6;" glyph-name="odieresis" horiz-adv-x="1077" d="M574,845q211,4 210-352q-1-188-80-273q-75-80-184-80q-96,0-170,80q-72,78-72,235q0,163 100,299q65,88 196,91Zm-8,204q-218,2-350-172Q82,701 82,473Q82,232 194,99Q318-48 496-49q246-2 366,151Q969,229 970,473q1,573-404,576Zm253,306q-118,0-118-96q0-88 116-88q125,0 125,91q0,93-123,93Zm-505,0q-118,0-118-96q0-88 116-88q125,0 125,91q0,93-123,93Z" />
      <glyph unicode="&#xf7;" glyph-name="divide" horiz-adv-x="984" d="M146,733q-96,0-96-94q0-90 87-90l651-1q119,0 119,95q-1,92-125,92l-636-2ZM446,367q-23-6-39-20q-18-14-26-34q-7-16-7-35q0-25 13-46q15-25 41-37q20-9 42-9q6,0 13,1q32,5 51,22q21,19 29,46q2,8 2,23q0,12-3,24q-4,22-25,41q-18,18-42,24q-12,3-25,3q-12,0-24-3Zm0,772q-23-6-39-20q-18-14-26-34q-7-16-7-35q0-25 13-46q15-25 41-37q20-9 42-9q6,0 13,1q32,5 51,22q21,19 29,46q2,8 2,23q0,12-3,24q-4,22-25,41q-18,18-42,24q-12,3-25,3q-12,0-24-3Z" />
      <glyph unicode="&#xf8;" glyph-name="oslash" horiz-adv-x="1077" d="M174-23l850,963q37,42-16,88q-48,40-86-2L70,68Q22,15 82-38q44-39 92,15ZM574,845q211,4 210-352q-1-188-80-273q-75-80-184-80q-96,0-170,80q-72,78-72,235q0,163 100,299q65,88 196,91Zm-8,204q-218,2-350-172Q82,701 82,473Q82,232 194,99Q318-48 496-49q246-2 366,151Q969,229 970,473q1,573-404,576Z" />
      <glyph unicode="&#xf9;" glyph-name="ugrave" horiz-adv-x="1065" d="M860-76q90,0 92,93l24,934q2,108-88,110q-106,1-109-108L767,448q-5-164-135-230q-144-72-248-2q-76,53-74,295l2,437q2,120-104,111q-94-9-96-129l-4-491Q104-16 480-17q170,0 279,99l-1-59q-2-99 102-99ZM392,1630q-75-59-14-126l237-260q88-96 144-40q53,53-28,155L523,1619q-57,71-131,11Z" />
      <glyph unicode="&#xfa;" glyph-name="uacute" horiz-adv-x="1065" d="M860-76q90,0 92,93l24,934q2,108-88,110q-106,1-109-108L767,448q-5-164-135-230q-144-72-248-2q-76,53-74,295l2,437q2,120-104,111q-94-9-96-129l-4-491Q104-16 480-17q170,0 279,99l-1-59q-2-99 102-99ZM772,1624q-74,60-131-11L433,1353q-82-102-28-155q57-56 144,40l237,260q61,67-14,126Z" />
      <glyph unicode="&#xfb;" glyph-name="ucircumflex" horiz-adv-x="1065" d="M860-76q90,0 92,93l24,934q2,108-88,110q-106,1-109-108L767,448q-5-164-135-230q-144-72-248-2q-76,53-74,295l2,437q2,120-104,111q-94-9-96-129l-4-491Q104-16 480-17q170,0 279,99l-1-59q-2-99 102-99ZM555,1710q-43,1-87-48L191,1356q-70-77-22-129q78-80 148-3l238,262l240-262q70-77 146,3q50,52-20,129L643,1662q-45,49-88,48Z" />
      <glyph unicode="&#xfc;" glyph-name="udieresis" horiz-adv-x="1065" d="M860-76q90,0 92,93l24,934q2,108-88,110q-106,1-109-108L767,448q-5-164-135-230q-144-72-248-2q-76,53-74,295l2,437q2,120-104,111q-94-9-96-129l-4-491Q104-16 480-17q170,0 279,99l-1-59q-2-99 102-99ZM795,1367q-118,0-118-96q0-88 116-88q125,0 125,91q0,93-123,93Zm-505,0q-118,0-118-96q0-88 116-88q125,0 125,91q0,93-123,93Z" />
      <glyph unicode="&#xfd;" glyph-name="yacute" horiz-adv-x="1066" d="M960,1029q-96,40-147-78L539,320L204,957q-63,119-156,69q-88-47-24-165L440,91L241-369q-69-159 36-202q88-36 157,124L1005,870q51,118-45,159ZM708,1618q-74,60-131-11L369,1347q-82-102-28-155q57-56 144,40l237,260q61,67-14,126Z" />
      <glyph unicode="&#xfe;" glyph-name="thorn" horiz-adv-x="1095" d="M282,1324q-102-2-104-156L148-452q-2-117 86-117q92,0 96,117q16,432-4,433q674-21 680,433q8,590-648,515q0,101 6,243q6,154-82,152Zm70-570q480,29 474-322q-4-260-494-261l20,583Z" />
      <glyph unicode="&#xff;" glyph-name="ydieresis" horiz-adv-x="1066" d="M960,1029q-96,40-147-78L539,320L204,957q-63,119-156,69q-88-47-24-165L440,91L241-369q-69-159 36-202q88-36 157,124L1005,870q51,118-45,159ZM755,1361q-118,0-118-96q0-88 116-88q125,0 125,91q0,93-123,93Zm-505,0q-118,0-118-96q0-88 116-88q125,0 125,91q0,93-123,93Z" />
      <glyph unicode="&#x2013;" glyph-name="endash" horiz-adv-x="904" d="M133,745q-88,0-88-101q0-97 79-97H721q108-1 108,101q-1,100-114,99l-582-2Z" />
      <glyph unicode="&#x2014;" glyph-name="emdash" horiz-adv-x="1808" d="M203,740Q68,740 68,641q0-96 117-96l1401-1q125,0 125,101q-1,98-136,98L203,740Z" />
      <glyph unicode="&#x2018;" glyph-name="quoteleft" horiz-adv-x="369" d="M149,1612q-95-8-81-97l53-348q20-128 98-113q75,15 63,145l-30,331q-8,91-103,82Z" />
      <glyph unicode="&#x2019;" glyph-name="quoteright" horiz-adv-x="369" d="M198,1612q-95,9-103-82L65,1199q-11-130 63-145q78-15 98,113l53,348q14,89-81,97Z" />
      <glyph unicode="&#x201a;" glyph-name="quotesinglbase" horiz-adv-x="612" d="M366,203q-88,61-136-26L96-63q-42-75 16-112q64-40 114,30L384,71q58,80-18,132Z" />
      <glyph unicode="&#x201c;" glyph-name="quotedblleft" horiz-adv-x="806" d="M174,1612q-95-8-81-97l53-348q20-128 98-113q75,15 63,145l-30,331q-8,91-103,82Zm332,0q-95-8-81-97l53-348q20-128 98-113q75,15 63,145l-30,331q-8,91-103,82Z" />
      <glyph unicode="&#x201d;" glyph-name="quotedblright" horiz-adv-x="806" d="M603,1612q-95,9-103-82l-30-331q-11-130 63-145q78-15 98,113l53,348q14,89-81,97Zm-332,0q-95,9-103-82l-30-331q-11-130 63-145q78-15 98,113l53,348q14,89-81,97Z" />
      <glyph unicode="&#x201e;" glyph-name="quotedblbase" horiz-adv-x="843" d="M366,203q-88,61-136-26L96-63q-42-75 16-112q64-40 114,30L384,71q58,80-18,132Zm348,0q-88,61-136-26L444-63q-42-75 16-112q64-40 114,30L732,71q58,80-18,132Z" />
      <glyph unicode="&#x2022;" glyph-name="bullet" horiz-adv-x="793" d="M377,956q-54,0-98-29q-41-28-68-74q-25-45-25-96q0-54 27-100q26-44 69-70q41-25 90-27q5,0 9,0q49-1 89,19q38,18 69,59q35,46 40,103q0,8 0,16q0,49-22,92q-26,51-75,80q-45,27-99,27q-3,0-6,0Z" />
      <glyph unicode="&#x2039;" glyph-name="guilsinglleft" horiz-adv-x="781" d="M69,695q-48-42-49-90q0-35 56-80L459,216q68-55 122,6q62,70-5,126L251,618L564,884q87,74 35,140q-62,78-148,3L69,695Z" />
      <glyph unicode="&#x203a;" glyph-name="guilsinglright" horiz-adv-x="781" d="M667,723L285,1055q-86,75-148-3q-52-66 35-140L485,646L160,376q-68-55-5-126q54-61 122-6L660,553q56,45 56,80q-1,48-49,90Z" />
    </font>
</defs>
</svg>
